<svg data-v-fde0c5aa="" xmlns="http://www.w3.org/2000/svg" viewBox="0 0 300 300" class="iconLeft"><!----><defs data-v-fde0c5aa=""><!----></defs><rect data-v-fde0c5aa="" fill="#E6F2FE" x="0" y="0" width="300px" height="300px" class="logo-background-square"></rect><defs data-v-fde0c5aa=""><!----></defs><g data-v-fde0c5aa="" id="375a9f95-86e3-425a-aef6-c118f3793461" fill="#193655" transform="matrix(2.7898023458641896,0,0,2.7898023458641896,106.14239121384887,129.5925963455104)"><path d="M0.42 9.38C0.42 10.50 0.73 11.34 1.34 11.90C1.96 12.46 2.74 12.74 3.68 12.74C4.72 12.74 5.50 12.30 6.02 11.41L6.02 12.60L7.91 12.60L7.91 1.68L6.02 1.68L6.02 7.35C5.50 6.46 4.72 6.02 3.68 6.02C2.74 6.02 1.96 6.30 1.34 6.86C0.73 7.42 0.42 8.26 0.42 9.38ZM2.32 9.38C2.32 8.89 2.50 8.48 2.85 8.17C3.20 7.86 3.64 7.70 4.17 7.70C4.70 7.70 5.15 7.84 5.50 8.11C5.84 8.39 6.02 8.81 6.02 9.38C6.02 9.95 5.84 10.37 5.50 10.65C5.15 10.92 4.70 11.06 4.17 11.06C3.62 11.06 3.18 10.92 2.83 10.63C2.49 10.35 2.32 9.93 2.32 9.38ZM14.11 8.62L10.99 8.62C11.06 8.22 11.26 7.91 11.58 7.69C11.90 7.46 12.25 7.35 12.64 7.35C13.50 7.35 13.99 7.77 14.11 8.62ZM10.98 9.87L16.07 9.87C16.09 9.69 16.10 9.49 16.10 9.25C16.10 8.25 15.79 7.44 15.16 6.85C14.54 6.25 13.70 5.95 12.64 5.95C11.57 5.95 10.70 6.27 10.03 6.92C9.36 7.57 9.03 8.39 9.03 9.38C9.03 10.38 9.35 11.19 9.99 11.81C10.63 12.43 11.51 12.74 12.64 12.74C14.28 12.74 15.40 12.10 16.02 10.82L14.22 10.42C13.93 10.99 13.41 11.27 12.64 11.27C11.69 11.27 11.13 10.80 10.98 9.87ZM17.22 1.68L17.22 12.60L19.11 12.60L19.11 1.68ZM20.65 3.61C20.65 3.91 20.76 4.17 20.99 4.38C21.22 4.60 21.49 4.70 21.81 4.70C22.13 4.70 22.40 4.60 22.63 4.38C22.86 4.17 22.97 3.91 22.97 3.61C22.97 3.31 22.86 3.06 22.63 2.84C22.40 2.63 22.13 2.52 21.81 2.52C21.49 2.52 21.22 2.63 20.99 2.84C20.76 3.06 20.65 3.31 20.65 3.61ZM20.85 6.16L20.85 12.60L22.76 12.60L22.76 6.16ZM23.39 6.16L27.10 12.95L30.81 6.16L28.64 6.16L27.10 9.48L25.56 6.16ZM35.97 8.62L32.84 8.62C32.92 8.22 33.11 7.91 33.43 7.69C33.75 7.46 34.10 7.35 34.50 7.35C35.35 7.35 35.84 7.77 35.97 8.62ZM32.83 9.87L37.93 9.87C37.94 9.69 37.95 9.49 37.95 9.25C37.95 8.25 37.64 7.44 37.02 6.85C36.39 6.25 35.55 5.95 34.50 5.95C33.42 5.95 32.55 6.27 31.88 6.92C31.22 7.57 30.88 8.39 30.88 9.38C30.88 10.38 31.20 11.19 31.84 11.81C32.48 12.43 33.37 12.74 34.50 12.74C36.13 12.74 37.25 12.10 37.87 10.82L36.08 10.42C35.79 10.99 35.26 11.27 34.50 11.27C33.54 11.27 32.99 10.80 32.83 9.87ZM43.26 8.15L44.23 6.64C43.88 6.22 43.36 6.01 42.67 6.01C42.04 6.01 41.49 6.35 41.03 7.03L41.03 6.16L39.07 6.16L39.07 12.60L41.03 12.60L41.03 9.02C41.03 8.57 41.13 8.26 41.31 8.09C41.49 7.91 41.78 7.83 42.18 7.83C42.60 7.83 42.96 7.93 43.26 8.15ZM45.21 2.80L45.21 12.60L47.17 12.60L47.17 2.80ZM48.15 4.55L50.67 4.55L50.67 12.60L52.63 12.60L52.63 4.55L55.15 4.55L55.15 2.80L48.15 2.80Z"></path></g><defs data-v-fde0c5aa=""><linearGradient data-v-fde0c5aa="" gradientTransform="rotate(25)" id="e70ce88c-d199-479a-aaaa-d361a9c4b962" x1="0%" y1="0%" x2="100%" y2="0%"><stop data-v-fde0c5aa="" offset="0%" stop-color="#51A4FB" stop-opacity="1"></stop><stop data-v-fde0c5aa="" offset="100%" stop-color="#51A4FB" stop-opacity="1"></stop></linearGradient></defs><g data-v-fde0c5aa="" id="2797400b-0d8d-458c-973e-b52ba821ad3a" stroke="none" fill="url(#e70ce88c-d199-479a-aaaa-d361a9c4b962)" transform="matrix(0.5564735731543449,0,0,0.5564735731543449,39.27887207298479,122.0620214105288)"><g data-name="Group"><path data-name="Compound Path" d="M87.9 33.7H70.7V21.6H44.2A22.3 22.3 0 1 0 5.9 43.7v39.7h10.2a13.1 13.1 0 0 0 25 0h22.7a13.1 13.1 0 0 0 25 0h10.1v-26l-6.4-4zm-6.4 8L83.9 52H70.7V41.7zM45.8 29.8v-.3h16.9V52H26.4a22.4 22.4 0 0 0 19.4-22.2zM13.9 50.1a22.2 22.2 0 0 0 6.6 1.9h-6.6zm9.5-34.6A14.3 14.3 0 1 1 9.1 29.8a14.4 14.4 0 0 1 14.3-14.3zm5.1 69a5.1 5.1 0 1 1 5.1-5.1 5.1 5.1 0 0 1-5 5.1zm47.7 0a5.1 5.1 0 1 1 5.1-5.1 5.1 5.1 0 0 1-5 5.1zm14.6-9.1h-2a13.1 13.1 0 0 0-25 0H41.1a13.1 13.1 0 0 0-25 0h-2.2V60h73.9l3.1 1.9z"></path><path data-name="Path" d="M35.4 25.8h-8v-9.1h-8v17.1h16v-8z"></path></g></g><!----></svg>