<svg data-v-423bf9ae="" xmlns="http://www.w3.org/2000/svg" viewBox="0 0 458 90" class="iconLeft"><!----><!----><!----><g data-v-423bf9ae="" id="7c59476d-5678-4a0f-be53-fb654ca738ee" fill="black" transform="matrix(5.71973320392212,0,0,5.71973320392212,121.47584845525196,-3.817922022713269)"><path d="M8.12 3.29L6.19 3.29L6.19 7.13L5.70 6.36C5.32 6.09 4.56 5.94 3.95 5.94C2.03 5.94 0.38 7.29 0.38 10.00C0.38 12.19 1.61 13.78 3.70 13.78C4.45 13.78 5.21 13.58 5.63 13.26L6.19 12.43L6.19 13.58L8.12 13.58ZM4.26 12.42C3.11 12.42 2.38 11.40 2.38 9.87C2.38 8.15 3.21 7.29 4.33 7.29C5.22 7.29 6.19 7.90 6.19 9.58L6.19 9.94C6.19 11.76 5.32 12.42 4.26 12.42ZM16.67 9.70C16.67 7.67 15.47 5.94 13.19 5.94C10.91 5.94 9.41 7.60 9.41 9.88C9.41 12.50 10.99 13.78 13.03 13.78C14.78 13.78 16.18 12.89 16.56 11.16L14.63 11.16C14.50 11.96 13.90 12.42 13.08 12.42C12.18 12.42 11.48 11.93 11.35 10.36L16.65 10.36C16.67 10.11 16.67 9.88 16.67 9.70ZM13.10 7.29C14.03 7.29 14.56 7.92 14.69 9.10L11.41 9.10C11.58 7.87 12.21 7.29 13.10 7.29ZM19.88 3.29L17.95 3.29L17.95 11.19C17.95 11.68 17.95 12.03 17.98 12.36C18.02 13.33 18.62 13.68 19.57 13.68C20.01 13.68 20.38 13.66 20.76 13.62L20.76 12.29C20.10 12.33 19.94 12.21 19.89 11.83C19.88 11.63 19.88 11.44 19.88 11.14ZM22.88 3.36C22.25 3.36 21.81 3.78 21.81 4.38C21.81 5.00 22.25 5.40 22.88 5.40C23.51 5.40 23.94 5.00 23.94 4.38C23.94 3.78 23.51 3.36 22.88 3.36ZM23.84 13.58L23.84 6.13L21.91 6.13L21.91 13.58ZM32.69 6.13L30.60 6.13L28.77 12.12L26.89 6.13L24.75 6.13L27.65 13.58L29.81 13.58ZM40.07 9.70C40.07 7.67 38.86 5.94 36.58 5.94C34.30 5.94 32.80 7.60 32.80 9.88C32.80 12.50 34.38 13.78 36.43 13.78C38.18 13.78 39.58 12.89 39.96 11.16L38.02 11.16C37.90 11.96 37.30 12.42 36.47 12.42C35.57 12.42 34.87 11.93 34.75 10.36L40.04 10.36C40.07 10.11 40.07 9.88 40.07 9.70ZM36.50 7.29C37.42 7.29 37.95 7.92 38.08 9.10L34.80 9.10C34.97 7.87 35.60 7.29 36.50 7.29ZM45.19 5.95C44.77 5.95 44.28 6.12 43.92 6.45L43.33 7.49L43.33 6.13L41.40 6.13L41.40 13.58L43.33 13.58L43.33 10.16C43.33 8.16 44.13 7.45 45.74 7.56L45.74 6.01C45.57 5.96 45.42 5.95 45.19 5.95ZM49.01 13.58L49.01 3.92L47.08 3.92L47.08 13.58ZM58.73 5.43L58.73 3.92L50.25 3.92L50.25 5.43L53.52 5.43L53.52 13.58L55.45 13.58L55.45 5.43Z"></path></g><!----><g data-v-423bf9ae="" id="e1a06018-4a0c-4ae6-8ba7-af17c08b0284" transform="matrix(1.0619362912763,0,0,1.0619362912763,-0.9049362268958419,-7.48495973835886)" stroke="none" fill="black"><g data-name="Group"><path data-name="Compound Path" d="M87.9 33.7H70.7V21.6H44.2A22.3 22.3 0 1 0 5.9 43.7v39.7h10.2a13.1 13.1 0 0 0 25 0h22.7a13.1 13.1 0 0 0 25 0h10.1v-26l-6.4-4zm-6.4 8L83.9 52H70.7V41.7zM45.8 29.8v-.3h16.9V52H26.4a22.4 22.4 0 0 0 19.4-22.2zM13.9 50.1a22.2 22.2 0 0 0 6.6 1.9h-6.6zm9.5-34.6A14.3 14.3 0 1 1 9.1 29.8a14.4 14.4 0 0 1 14.3-14.3zm5.1 69a5.1 5.1 0 1 1 5.1-5.1 5.1 5.1 0 0 1-5 5.1zm47.7 0a5.1 5.1 0 1 1 5.1-5.1 5.1 5.1 0 0 1-5 5.1zm14.6-9.1h-2a13.1 13.1 0 0 0-25 0H41.1a13.1 13.1 0 0 0-25 0h-2.2V60h73.9l3.1 1.9z"></path><path data-name="Path" d="M35.4 25.8h-8v-9.1h-8v17.1h16v-8z"></path></g></g><!----></svg>